<?xml version="1.0" encoding="UTF-8"?>
<!DOCTYPE svg PUBLIC "-//W3C//DTD SVG 1.1//EN" "http://www.w3.org/Graphics/SVG/1.1/DTD/svg11.dtd">
<svg xmlns="http://www.w3.org/2000/svg" version="1.1" width="1200px" height="800px" style="shape-rendering:geometricPrecision; text-rendering:geometricPrecision; image-rendering:optimizeQuality; fill-rule:evenodd; clip-rule:evenodd" xmlns:xlink="http://www.w3.org/1999/xlink">
<g><path style="opacity:0.895" fill="#fefffe" d="M 338.5,311.5 C 345.175,311.334 351.842,311.5 358.5,312C 365.604,312.639 367.27,315.972 363.5,322C 356.117,322.799 348.783,322.632 341.5,321.5C 329.463,324.574 325.63,331.908 330,343.5C 331.558,345.359 333.391,346.859 335.5,348C 344.488,349.075 353.488,349.908 362.5,350.5C 365.6,354.502 364.933,357.669 360.5,360C 351.095,360.246 341.761,359.579 332.5,358C 318.482,350.621 314.315,339.454 320,324.5C 324.278,317.293 330.445,312.96 338.5,311.5 Z"/></g>
<g><path style="opacity:0.915" fill="#00538d" d="M 925.5,311.5 C 933.174,311.334 940.841,311.5 948.5,312C 953.831,312.829 955.331,315.662 953,320.5C 952.25,321.126 951.416,321.626 950.5,322C 943.782,322.795 937.116,322.628 930.5,321.5C 918.628,323.91 914.462,330.91 918,342.5C 919.873,344.709 922.04,346.542 924.5,348C 933.527,348.969 942.527,349.969 951.5,351C 954.167,353.667 954.167,356.333 951.5,359C 942.5,359.667 933.5,359.667 924.5,359C 906.426,351.678 901.593,339.178 910,321.5C 914.239,316.479 919.406,313.146 925.5,311.5 Z"/></g>
<g><path style="opacity:0.898" fill="#fefffe" d="M 377.5,312.5 C 386.546,312.236 395.546,312.736 404.5,314C 418.174,319.175 423.674,329.009 421,343.5C 415.537,357.32 405.37,362.987 390.5,360.5C 385.833,360.333 381.167,360.167 376.5,360C 373.022,357.294 372.689,354.294 375.5,351C 385.266,350.949 394.933,350.282 404.5,349C 412.271,342.943 413.437,335.776 408,327.5C 406.421,325.959 404.587,324.792 402.5,324C 393.783,323.839 385.116,323.173 376.5,322C 373.765,318.508 374.098,315.342 377.5,312.5 Z"/></g>
<g><path style="opacity:0.928" fill="#00538e" d="M 965.5,312.5 C 974.891,312.147 984.225,312.647 993.5,314C 1004.16,318.123 1009.82,325.957 1010.5,337.5C 1010.03,344.939 1007.03,351.106 1001.5,356C 998.618,357.608 995.618,358.941 992.5,360C 983.5,360.667 974.5,360.667 965.5,360C 961.225,357.788 960.559,354.788 963.5,351C 972.167,350.667 980.833,350.333 989.5,350C 999.705,345.669 1002.2,338.503 997,328.5C 995.269,326.383 993.102,324.883 990.5,324C 981.786,323.394 973.119,322.561 964.5,321.5C 961.998,318.29 962.331,315.29 965.5,312.5 Z"/></g>
<g><path style="opacity:0.983" fill="#00538e" d="M 90.5,320.5 C 117.881,317.928 142.214,325.095 163.5,342C 176.481,355.636 179.981,371.47 174,389.5C 167.049,403.784 156.216,413.95 141.5,420C 155.15,422.902 166.317,429.736 175,440.5C 185.437,461.028 183.104,480.028 168,497.5C 143.578,522.985 113.578,535.652 78,535.5C 61.4353,535.817 45.9353,531.984 31.5,524C 21.0603,516.222 16.0603,505.722 16.5,492.5C 17.0364,484.318 18.5364,476.318 21,468.5C 30.7318,441.305 40.0651,413.971 49,386.5C 50.7626,380.599 51.4292,374.599 51,368.5C 50.4241,366.148 48.9241,365.148 46.5,365.5C 43.9722,365.763 41.6389,366.596 39.5,368C 30.1356,376.223 22.3023,385.723 16,396.5C 13.2657,372.791 21.4324,353.624 40.5,339C 55.5829,328.363 72.2495,322.197 90.5,320.5 Z M 90.5,356.5 C 101.91,355.914 112.577,358.414 122.5,364C 136.156,377.179 135.489,389.846 120.5,402C 111.186,408.413 100.852,411.58 89.5,411.5C 90.9027,400.375 91.9027,389.208 92.5,378C 92.449,370.762 91.7824,363.596 90.5,356.5 Z M 82.5,431.5 C 98.1494,432.21 111.316,438.21 122,449.5C 129.616,461.263 128.949,472.596 120,483.5C 106.721,497.445 90.8873,501.611 72.5,496C 70.9512,494.786 69.7845,493.286 69,491.5C 68.3333,486.833 68.3333,482.167 69,477.5C 72.3805,466.405 76.0471,455.405 80,444.5C 81.1566,440.218 81.9899,435.884 82.5,431.5 Z"/></g>
<g><path style="opacity:0.983" fill="#00538e" d="M 677.5,321.5 C 690.028,320.669 698.528,326.002 703,337.5C 704.921,350.154 704.921,362.82 703,375.5C 697.062,410.086 688.229,443.919 676.5,477C 676.905,477.945 677.572,478.612 678.5,479C 688.5,481.667 698.5,484.333 708.5,487C 719.935,489.292 731.268,488.959 742.5,486C 749.526,483.148 755.526,478.814 760.5,473C 763.738,473.536 766.238,475.37 768,478.5C 775.36,493.981 774.36,508.981 765,523.5C 754.004,534.595 740.837,538.095 725.5,534C 703.407,527.744 681.241,521.911 659,516.5C 648.3,527.934 635.133,533.434 619.5,533C 610.026,530.193 603.86,524.026 601,514.5C 596.723,500.165 598.723,486.831 607,474.5C 609.99,471.509 613.49,469.343 617.5,468C 624.135,466.61 630.635,466.11 637,466.5C 648.855,428.038 654.855,388.705 655,348.5C 654.305,346.278 653.472,344.111 652.5,342C 657.112,330.549 665.445,323.716 677.5,321.5 Z"/></g>
<g><path style="opacity:0.976" fill="#00538e" d="M 838.5,323.5 C 859.527,324.022 869.027,334.689 867,355.5C 860.823,373.347 848.323,380.514 829.5,377C 815.993,372.829 809.826,363.662 811,349.5C 813.924,334.073 823.09,325.406 838.5,323.5 Z"/></g>
<g><path style="opacity:0.983" fill="#00538e" d="M 238.5,329.5 C 256.347,327.49 267.18,335.157 271,352.5C 271.804,362.873 271.471,373.207 270,383.5C 264.512,412.275 258.512,440.942 252,469.5C 249.556,479.47 249.223,489.47 251,499.5C 252.936,502.813 255.77,503.979 259.5,503C 262.295,501.207 264.795,499.04 267,496.5C 268.158,496.998 268.991,497.831 269.5,499C 267.254,514.583 258.92,525.583 244.5,532C 214.23,537.747 198.896,525.08 198.5,494C 198.886,484.076 200.053,474.243 202,464.5C 208.692,437.039 214.359,409.372 219,381.5C 220.232,370.623 219.398,359.956 216.5,349.5C 220.377,338.953 227.711,332.286 238.5,329.5 Z"/></g>
<g><path style="opacity:0.981" fill="#00538e" d="M 1084.5,329.5 C 1107.09,328.088 1118.42,338.755 1118.5,361.5C 1118.25,366.524 1117.75,371.524 1117,376.5C 1113.65,392.573 1110.31,408.573 1107,424.5C 1115.08,411.752 1125.25,400.919 1137.5,392C 1151.06,385.161 1164.73,384.828 1178.5,391C 1191.05,401.661 1194.89,414.828 1190,430.5C 1186.38,442.239 1179.88,452.072 1170.5,460C 1164.34,464.25 1158,468.25 1151.5,472C 1161.39,490.854 1176.89,500.021 1198,499.5C 1194.38,513.478 1185.88,523.645 1172.5,530C 1154.94,537.812 1139.11,535.312 1125,522.5C 1116.92,511.09 1114.25,498.423 1117,484.5C 1118.2,478.686 1119.87,473.019 1122,467.5C 1130.5,463.013 1137.83,457.013 1144,449.5C 1153.71,432.856 1148.87,425.023 1129.5,426C 1116.94,431.904 1108.1,441.404 1103,454.5C 1100.64,460.79 1099.47,467.29 1099.5,474C 1100.77,483.832 1102.1,493.666 1103.5,503.5C 1100.13,529.849 1085.8,539.016 1060.5,531C 1051.06,523.716 1046.4,514.049 1046.5,502C 1052.91,462.597 1059.08,423.097 1065,383.5C 1065.67,373.5 1065.67,363.5 1065,353.5C 1063.38,349.961 1062.72,346.294 1063,342.5C 1068.93,335.96 1076.09,331.626 1084.5,329.5 Z"/></g>
<g><path style="opacity:0.894" fill="#fefffe" d="M 349.5,330.5 C 363.163,331.024 376.829,331.524 390.5,332C 393.966,334.661 394.299,337.661 391.5,341C 376.778,341.932 362.112,341.599 347.5,340C 344.466,335.974 345.133,332.807 349.5,330.5 Z"/></g>
<g><path style="opacity:0.916" fill="#00538d" d="M 936.5,330.5 C 950.51,330.667 964.51,331.167 978.5,332C 982.755,334.711 983.088,337.711 979.5,341C 966.5,341.667 953.5,341.667 940.5,341C 934.212,339.5 932.878,336 936.5,330.5 Z"/></g>
<g><path style="opacity:0.979" fill="#00538e" d="M 531.5,385.5 C 540.506,385.334 549.506,385.5 558.5,386C 583.336,390.499 595.17,405.333 594,430.5C 586.195,463.337 565.362,478.504 531.5,476C 524.323,474.775 517.656,472.275 511.5,468.5C 511.22,484.73 518.887,495.23 534.5,500C 555.139,501.182 572.139,493.849 585.5,478C 586.448,477.517 587.448,477.351 588.5,477.5C 589.436,497.13 581.769,512.296 565.5,523C 536.384,539.635 507.384,539.635 478.5,523C 463.427,509.796 456.094,493.13 456.5,473C 460.229,425.447 485.229,396.28 531.5,385.5 Z M 535.5,410.5 C 548.391,410.901 553.891,417.568 552,430.5C 546.605,453.113 533.105,460.279 511.5,452C 510.575,436.794 515.908,424.128 527.5,414C 530.374,413.058 533.04,411.891 535.5,410.5 Z"/></g>
<g><path style="opacity:0.982" fill="#00538e" d="M 315.5,386.5 C 326.717,384.852 337.05,387.019 346.5,393C 354.786,401.539 357.62,411.706 355,423.5C 350.861,442.053 347.361,460.72 344.5,479.5C 344.575,484.664 346.242,489.164 349.5,493C 353.809,494.198 357.476,493.198 360.5,490C 368.828,481.183 374.995,471.016 379,459.5C 386.58,441.552 388.413,423.052 384.5,404C 389.84,392.656 398.84,386.822 411.5,386.5C 424.894,386.603 433.727,392.936 438,405.5C 438.667,411.5 438.667,417.5 438,423.5C 433.074,442.279 427.741,460.946 422,479.5C 420.576,485.776 420.242,492.109 421,498.5C 424.306,505.101 429.139,506.267 435.5,502C 437.017,500.315 438.684,498.815 440.5,497.5C 442.024,498.527 442.691,500.027 442.5,502C 438.442,522.382 425.942,533.215 405,534.5C 383.372,531.86 372.705,519.527 373,497.5C 365.225,513.253 353.392,524.753 337.5,532C 316.906,537.953 303.073,530.786 296,510.5C 292.881,498.523 292.881,486.523 296,474.5C 298.873,460.469 301.873,446.469 305,432.5C 305.767,428.406 305.434,424.406 304,420.5C 300.429,416.882 296.595,416.716 292.5,420C 291.12,421.925 289.62,423.759 288,425.5C 286.474,424.455 285.641,422.955 285.5,421C 287.887,402.785 297.887,391.285 315.5,386.5 Z"/></g>
<g><path style="opacity:0.98" fill="#00538e" d="M 819.5,386.5 C 842.031,383.887 854.031,393.72 855.5,416C 855.206,420.854 854.706,425.688 854,430.5C 850.144,446.069 845.477,461.403 840,476.5C 837.805,483.699 837.139,491.032 838,498.5C 842.654,503.885 847.154,503.718 851.5,498C 852.448,497.517 853.448,497.351 854.5,497.5C 853.194,518.311 842.194,530.478 821.5,534C 799.137,534.138 787.804,522.971 787.5,500.5C 787.681,494.083 788.514,487.749 790,481.5C 794.137,470.089 798.47,458.755 803,447.5C 805.275,440.315 805.942,432.982 805,425.5C 803.763,420.254 800.596,418.42 795.5,420C 793.023,421.643 790.69,423.476 788.5,425.5C 786.554,423.956 786.054,421.956 787,419.5C 791.313,402.021 802.146,391.021 819.5,386.5 Z"/></g>
<g><path style="opacity:0.982" fill="#00538d" d="M 904.5,386.5 C 931.473,383.397 944.973,395.397 945,422.5C 955.636,406.519 969.803,395.019 987.5,388C 1013.25,381.418 1025.59,391.418 1024.5,418C 1022.63,438.689 1019.46,459.189 1015,479.5C 1014.33,485.833 1014.33,492.167 1015,498.5C 1017.53,502.79 1021.03,503.623 1025.5,501C 1027.02,499.315 1028.68,497.815 1030.5,496.5C 1031.72,496.887 1032.39,497.72 1032.5,499C 1029.42,517.413 1018.76,528.746 1000.5,533C 986.172,536.079 975.006,531.579 967,519.5C 963.779,510.421 962.779,501.087 964,491.5C 967.262,473.286 970.762,455.12 974.5,437C 974.422,427.797 970.088,424.797 961.5,428C 949.881,433.619 941.715,442.453 937,454.5C 933.165,466.656 933.165,478.989 937,491.5C 939.142,503.343 937.142,514.343 931,524.5C 919.996,534.706 907.829,536.206 894.5,529C 885.585,521.835 881.252,512.502 881.5,501C 882.053,493.075 883.22,485.241 885,477.5C 888.315,464.906 891.315,452.239 894,439.5C 894.667,435.167 894.667,430.833 894,426.5C 892.957,422.624 890.457,420.291 886.5,419.5C 882.467,420.599 878.967,422.599 876,425.5C 874.701,424.91 873.868,423.91 873.5,422.5C 876.815,404.202 887.148,392.202 904.5,386.5 Z"/></g>
</svg>
